<?xml version="1.0" encoding="iso-8859-1"?>
<!-- Generator: Adobe Illustrator 19.0.0, SVG Export Plug-In . SVG Version: 6.00 Build 0)  -->
<svg version="1.1" id="Layer_1" xmlns="http://www.w3.org/2000/svg" xmlns:xlink="http://www.w3.org/1999/xlink" x="0px" y="0px"
	 viewBox="0 0 509.82 509.82" style="enable-background:new 0 0 509.82 509.82;" xml:space="preserve">
<g>
	<path style="fill:#13A085;" d="M336.168,167.724c0,92.637-75.096,167.724-167.724,167.724
		c-92.637,0-167.724-75.087-167.724-167.724S75.807,0,168.444,0C261.071,0,336.168,75.087,336.168,167.724"/>
	<path style="fill:#556080;" d="M498.759,499.478L498.759,499.478c-13.789,13.789-36.149,13.789-49.938,0L337.682,386.9
		l49.938-49.938L498.759,449.54C512.547,463.329,512.547,485.689,498.759,499.478"/>
	<path style="fill:#8697CB;" d="M298.824,273.133c-7.424,9.181-15.793,17.54-24.973,24.973l76.314,76.306l24.973-24.964
		L298.824,273.133z"/>
	<g>
		<path style="fill:#FFFFFF;" d="M168.384,282.483c-4.873,0-8.828-3.955-8.828-8.828V61.793c0-4.873,3.955-8.828,8.828-8.828
			s8.828,3.955,8.828,8.828v211.862C177.211,278.528,173.256,282.483,168.384,282.483"/>
		<path style="fill:#FFFFFF;" d="M168.384,264.828c-21.804,0-40.413-7.645-51.041-20.974c-3.037-3.814-2.419-9.375,1.395-12.412
			c3.805-3.037,9.375-2.41,12.403,1.395c7.159,8.978,21.08,14.336,37.244,14.336c21.23,0,44.138-13.497,44.138-35.31
			c0-21.124-22.819-35.31-44.138-35.31c-29.722,0-61.793-20.25-61.793-52.966s32.071-52.966,61.793-52.966
			c22.131,0,40.254,7.45,51.041,20.974c3.037,3.814,2.419,9.375-1.395,12.412c-3.814,3.037-9.366,2.41-12.403-1.395
			c-7.371-9.242-20.595-14.336-37.244-14.336c-21.319,0-44.138,14.186-44.138,35.31c0,21.813,22.908,35.31,44.138,35.31
			c29.722,0,61.793,20.25,61.793,52.966S198.106,264.828,168.384,264.828"/>
		<path style="fill:#FFFFFF;" d="M212.521,132.414c-4.873,0-8.828-3.955-8.828-8.828V70.621c0-4.873,3.955-8.828,8.828-8.828
			c4.873,0,8.828,3.955,8.828,8.828v52.966C221.349,128.459,217.394,132.414,212.521,132.414"/>
		<path style="fill:#FFFFFF;" d="M124.246,273.655c-4.873,0-8.828-3.955-8.828-8.828v-52.966c0-4.873,3.955-8.828,8.828-8.828
			s8.828,3.955,8.828,8.828v52.966C133.073,269.7,129.118,273.655,124.246,273.655"/>
	</g>
</g>
<g>
</g>
<g>
</g>
<g>
</g>
<g>
</g>
<g>
</g>
<g>
</g>
<g>
</g>
<g>
</g>
<g>
</g>
<g>
</g>
<g>
</g>
<g>
</g>
<g>
</g>
<g>
</g>
<g>
</g>
</svg>
